<?xml version="1.0" encoding="utf-8"?>
<!-- Generator: flash2svg, http://dissentgraphics.com/tools/flash2svg -->
<svg xmlns:xlink="http://www.w3.org/1999/xlink" id="fish-11" image-rendering="optimizeSpeed" baseProfile="basic" version="1.1" style="background-color:#ffffff" x="0px" y="0px" width="60px" height="40px" viewBox="0 0 60 40" enable-background="new 0 0 60 40" xmlns="http://www.w3.org/2000/svg">
  <defs transform="matrix(1 0 0 1 0 0) "/>
  <g id="Layer.__201">
    <g id="Symbol.__201_1" overflow="visible">
      <g id="Layer.__239">
        <g id="shape.__2069_2" overflow="visible">
          <g id="Layer.__240">
            <g id="shape46">
              <path id="path34" fill="#004891" fill-opacity="1" d="M55.842,22.268 Q57.58,18.601 59.745,16.445 C59.859,16.337 59.945,16.265 60.03,16.157 59.688,15.978 59.033,15.978 58.093,16.193 57.836,16.265 57.58,16.337 57.295,16.409 55.5,16.912 53.619,18.565 51.682,21.405 51.711,23.454 53.107,23.741 55.842,22.268z"/>
            </g>
          </g>
          <g id="Layer.__241">
            <g id="shape47">
              <path id="path35" fill="#004891" fill-opacity="1" d="M19.43,39.319 Q21.728,40.599 22.706,39.823 C21.367,36.731 20.484,32.49 20,27.098 17.236,24.043 15.413,24.654 14.53,28.967 15.783,34.79 17.407,38.241 19.43,39.319z"/>
            </g>
          </g>
          <g id="Layer.__242">
            <g id="shape48">
              <path id="path36" fill="#00CCFF" fill-opacity="1" d="M45.015,28.464 C45.101,27.817 43.534,27.997 40.314,28.967 L40.3,28.967 L35.556,30.405 35.556,30.154 35.214,30.351 L35.214,30.369 C35.3,30.297 35.357,30.226 35.414,30.19 35.471,30.154 35.528,30.154 35.556,30.118 L35.556,27.781 C35.499,27.817 35.442,27.817 35.414,27.817 35.157,27.853 34.929,27.925 34.701,27.961 24.416,30.118 16.552,31.268 11.111,31.376 5.669,30.333 5.669,31.699 11.111,35.473 11.225,35.509 11.339,35.581 11.452,35.617 Q12.165,35.905 17.122,36.408 C20.399,36.731 25.869,35.653 33.476,33.173 41.083,30.693 44.93,29.111 45.015,28.464z"/>
            </g>
          </g>
          <g id="Layer.__243">
            <g id="shape49">
              <path id="path37" fill="#0066CC" fill-opacity="1" d="M53.449,24.964 C56.212,23.49 54.417,21.297 48.092,18.458 41.767,15.582 36.126,13.21 31.168,11.377 27.322,9.903 23.732,9.292 20.342,9.508 14.957,10.155 11.823,10.802 10.94,11.413 10.056,12.024 9.458,12.563 9.202,13.03 8.945,13.497 8.233,14.684 7.122,16.589 5.982,18.494 4.672,20.039 3.19,21.225 Q-2.708,24.281 3.19,28.989 C4.301,29.888 4.985,30.427 5.298,30.607 5.612,30.787 6.125,31.074 6.865,31.505 7.578,31.937 8.974,32.584 11.025,33.446 13.076,34.273 17.578,34.058 24.558,32.728 31.539,31.398 35.129,30.679 35.357,30.643 37.379,30.247 39.488,29.78 41.739,29.277 41.995,29.241 42.28,29.169 42.536,29.097 43.562,28.846 44.616,28.63 45.67,28.378 46.098,28.199 46.81,27.983 47.807,27.659 48.804,27.336 50.685,26.437 53.449,24.964z"/>
            </g>
          </g>
          <g id="Layer.__244">
            <g id="shape50">
              <path id="path38" fill="#004891" fill-opacity="1" d="M20.855,28.68 Q22.735,37.414 25.755,39.032 C27.294,39.895 28.376,40.074 29.032,39.535 27.692,36.444 26.809,32.202 26.325,26.811 23.561,23.756 21.738,24.367 20.855,28.68z"/>
            </g>
          </g>
          <g id="Layer.__245">
            <g id="shape51">
              <path id="path39" fill="#004891" fill-opacity="1" d="M55.186,23.216 Q51.084,19.909 51.027,24.546 C52.964,28.752 54.845,31.268 56.64,32.059 56.924,32.167 57.181,32.274 57.437,32.382 58.377,32.706 59.033,32.706 59.375,32.418 59.289,32.274 59.204,32.131 59.09,31.987 57.637,29.794 56.355,26.883 55.186,23.216z"/>
            </g>
          </g>
          <g id="Layer.__246">
            <g id="shape52">
              <path id="path40" fill="#004891" fill-opacity="1" d="M38.918,0.428 Q37.949,-0.471 35.642,1.003 C33.676,2.153 32.08,5.819 30.855,12.002 L37.066,14.302 C37.18,8.012 37.807,3.375 38.918,0.428z"/>
            </g>
          </g>
        </g>
        <g id="sprite.__2076_2" overflow="visible">
          <g id="Layer.__247">
            <g id="shape.__2071_4" overflow="visible">
              <g id="Layer.__248">
                <g id="shape53">
                  <path id="path41" fill="#00D9A3" fill-opacity="1" d="M4.738,8.71 C3.686,10.215 3.85,12.265 5.231,14.827 Q4.738,12.778 4.738,8.71"/>
                </g>
              </g>
              <g id="Layer.__249">
                <g id="shape54">
                  <path id="path42" fill="#FEFEE4" fill-opacity="1" d="M0.25,13.949 L0.283,14.877 C0.381,15.646 0.579,16.351 0.907,17.023 1.992,19.041 4.096,20.034 7.219,20.034 9.388,20.034 11.262,19.329 12.872,17.888 14.319,16.575 15.042,15.294 15.042,14.045 15.042,11.867 14.286,9.977 12.741,8.344 11.294,6.839 9.618,5.974 7.679,5.75 5.608,5.461 3.899,5.974 2.551,7.223 1.006,8.664 0.25,10.906 0.25,13.949z"/>
                </g>
              </g>
              <g id="Layer.__250">
                <g id="shape55">
                  <path id="path43" fill="#FEFEE4" fill-opacity="1" d="M28.141,18.881 Q30.278,15.134 29.095,11.482 C28.24,9.016 26.892,7.063 25.019,5.622 23.276,4.309 21.238,3.764 18.872,3.988 16.439,4.244 14.401,5.237 12.791,6.935 10.983,8.856 10.128,11.354 10.194,14.397 10.227,15.87 10.49,17.023 11.049,17.824 12.462,19.841 15.322,21.123 19.628,21.699 23.934,22.275 26.761,21.347 28.141,18.881z"/>
                </g>
              </g>
              <g id="Layer.__251">
                <g id="shape56">
                  <path id="path44" fill="#210222" fill-opacity="1" d="M8.435,12.603 Q8.106,12.251 7.613,12.251 C7.284,12.251 7.021,12.379 6.791,12.603 6.561,12.828 6.463,13.084 6.463,13.404 6.463,13.724 6.561,14.013 6.791,14.237 7.021,14.461 7.284,14.557 7.613,14.557 7.942,14.557 8.205,14.461 8.435,14.237 8.665,14.013 8.763,13.724 8.763,13.404 8.763,13.084 8.665,12.828 8.435,12.603z"/>
                </g>
              </g>
              <g id="Layer.__252">
                <g id="shape57">
                  <path id="path45" fill="#210222" fill-opacity="1" d="M14.96,12.411 Q14.467,11.931 13.777,11.931 C13.317,11.931 12.922,12.091 12.594,12.411 12.265,12.732 12.101,13.116 12.101,13.532 12.101,13.949 12.265,14.333 12.594,14.653 12.922,14.973 13.317,15.134 13.777,15.134 14.237,15.134 14.632,14.973 14.96,14.653 15.256,14.333 15.42,13.949 15.42,13.532 15.42,13.116 15.256,12.732 14.96,12.411z"/>
                </g>
              </g>
            </g>
          </g>
        </g>
      </g>
    </g>
  </g>
</svg>