<?xml version="1.0" encoding="utf-8"?>
<!-- Generator: flash2svg, http://dissentgraphics.com/tools/flash2svg -->
<svg xmlns:xlink="http://www.w3.org/1999/xlink" id="fish-8" image-rendering="optimizeSpeed" baseProfile="basic" version="1.1" style="background-color:#ffffff" x="0px" y="0px" width="52px" height="40px" viewBox="0 0 52 40" enable-background="new 0 0 52 40" xmlns="http://www.w3.org/2000/svg">
  <defs>
    <symbol id="sprite.__20467" viewBox="10.5 0.35 28.549999999999997 38.15">
      <g id="Layer.__206">
        <g id="shape" transform="matrix(1 0 0 1 10.5 0.35)">
          <path id="path" transform="matrix(1 0 0 1 -10.499 -0.349)" fill="#FBEB6D" fill-opacity="1" d="M39.05,38.5 Q32.3794921875,19.425 39.05,0.35 C24.95,6.3 15.45,12.85 10.5,19.95 L39.05,38.5z "/>
        </g>
      </g>
    </symbol>
    <symbol id="shape.__20453" viewBox="-1.05 0.25 61.75 42.1">
      <g id="Layer.__212">
        <g id="shape6" transform="matrix(1 0 0 1 -1.049 0.25)">
          <path id="path4" transform="matrix(1 0 0 1 1 -0.249)" fill="url(#linearGradient)" fill-opacity="1" d="M60.675,30.85 Q60.4482421875,27.305859375 57.45,23.1 C55.1,19.75 52.5,16.55 49.7,13.55 41.3,4.5 34.2,0.1 28.4,0.25 22.6,0.4 16.05,3.6 8.75,9.85 1.45,16.05 -1.75,21.4 -0.9,25.9 -0.05,30.4 4.05,34.4 11.5,37.95 18.9,41.45 26,42.85 32.8,42.2 39.55,41.5 45.95,40.05 51.95,37.8 57.9,35.55 60.85,33.2 60.7,30.85 "/>
        </g>
      </g>
    </symbol>
    <symbol id="shape.__20455" viewBox="3.55 -18.6 49.95 63.65">
      <g id="Layer.__213">
        <g id="shape8" transform="matrix(1 0 0 1 3.55 -18.599)">
          <path id="path5" transform="matrix(1 0 0 1 -3.549 18.55)" fill="#854975" fill-opacity="1" d="M40.75,-18.45 L41.075,-18.45 L41.1,-18.45 C41.05,-18.5 40.95,-18.55 40.9,-18.6 L40.75,-18.45z "/>
          <path id="path6" transform="matrix(1 0 0 1 -3.549 18.55)" fill="#FBEB6D" fill-opacity="1" d="M45.55,22.8 C44.75,22.1 43.8,21.75 42.65,21.75 41.55,21.75 40.6,22.1 39.75,22.8 38.95,23.55 38.55,24.4 38.55,25.4 38.55,26.4 38.95,27.25 39.75,27.95 40.6,28.65 41.55,29 42.65,29 43.8,29 44.75,28.65 45.55,27.95 46.4,27.25 46.8,26.4 46.8,25.4 46.8,24.4 46.4,23.55 45.55,22.8z M41.8,15.35 C42.5,14.6 42.85,13.65 42.85,12.55 42.85,11.45 42.5,10.5 41.8,9.75 41.15,9 40.3,8.6 39.35,8.6 38.4,8.6 37.55,9 36.85,9.75 36.2,10.5 35.85,11.45 35.85,12.55 35.85,13.65 36.2,14.6 36.85,15.35 37.55,16.1 38.4,16.5 39.35,16.5 40.3,16.5 41.15,16.1 41.8,15.35zM47.025,42.875 L47.05,42.9 53.5,40.55 C53.3,39.6 53.1,38.9 52.9,38.45 52.45,37.55 51.85,37 51,36.8 50.7,36.65 50.4,36.65 50.15,36.7 49.5,36.6 48.9,36.8 48.3,37.25 47.4,37.85 46.8,38.7 46.55,39.85 46.4,40.15 46.3,40.55 46.35,41 46.4,41.65 46.6,42.25 47.05,42.9zM30.65,23 C29.45,23 28.4,23.45 27.55,24.4 26.7,25.35 26.3,26.5 26.3,27.85 26.3,29.2 26.7,30.3 27.55,31.25 28.4,32.2 29.45,32.7 30.65,32.7 31.85,32.7 32.85,32.2 33.7,31.25 34.55,30.3 35,29.2 35,27.85 35,26.5 34.55,25.35 33.7,24.4 32.85,23.45 31.85,23 30.65,23zM15.75,35.65 C16.45,36.35 17.3,36.7 18.3,36.7 19.3,36.7 20.15,36.35 20.8,35.65 21.5,35 21.85,34.15 21.85,33.15 21.85,32.15 21.5,31.3 20.8,30.6 20.15,29.95 19.3,29.6 18.3,29.6 17.3,29.6 16.45,29.95 15.75,30.6 15.1,31.3 14.75,32.15 14.75,33.15 14.75,34.15 15.1,35 15.75,35.65zM7.55,33.6 C8,33.1 8.25,32.5 8.25,31.75 8.25,31 8,30.35 7.55,29.85 7.1,29.35 6.55,29.1 5.9,29.1 5.25,29.1 4.7,29.35 4.25,29.85 3.8,30.35 3.55,30.95 3.55,31.7 3.55,32.45 3.8,33.1 4.25,33.6 4.7,34.1 5.25,34.35 5.9,34.35 6.55,34.35 7.1,34.1 7.55,33.6zM23.55,40.4 C22.8,40.35 22.2,40.6 21.8,41.1 21.35,41.55 21.15,42.15 21.15,42.9 21.15,43.35 21.3,43.8 21.55,44.2 L27.75,45.05 C27.95,44.1 28.05,43.4 28.05,42.95 28.05,42.2 27.5,41.6 26.4,41.15 25.25,40.7 24.3,40.45 23.55,40.4zM35.65,41.8 C36.3,41.8 36.8,41.6 37.25,41.15 37.7,40.7 37.9,40.2 37.9,39.6 37.9,38.95 37.7,38.45 37.25,38 36.8,37.55 36.3,37.35 35.65,37.35 35.05,37.35 34.55,37.55 34.1,38 33.65,38.45 33.45,38.95 33.45,39.55 33.45,40.2 33.65,40.7 34.1,41.15 34.55,41.6 35.05,41.8 35.65,41.8z"/>
        </g>
      </g>
    </symbol>
    <symbol id="shape.__20457" viewBox="0 0 29.849999999999998 20.5">
      <g id="Layer.__214">
        <g id="shape25" transform="matrix(1 0 0 1 0 4.3)">
          <path id="path21" transform="matrix(1 0 0 1 0 -4.299)" fill="#FEFEE4" fill-opacity="1" d="M0,10.55 L0.05,11.3 C0.1,11.85 0.25,12.4 0.5,12.9 1.25,14.45 2.8,15.2 5.15,15.2 6.75,15.2 8.15,14.65 9.35,13.55 10.4,12.6 10.9,11.6 10.9,10.65 10.9,9 10.35,7.55 9.2,6.3 8.15,5.15 6.95,4.5 5.5,4.35 3.95,4.1 2.7,4.5 1.7,5.45 0.55,6.55 0,8.25 0,10.55z "/>
        </g>
      </g>
      <g id="Layer.__215">
        <g id="shape27" transform="matrix(1 0 0 1 8.95 0)">
          <path id="path22" transform="matrix(1 0 0 1 -8.949 0)" fill="#FEFEE4" fill-opacity="1" d="M26.5,2.1 Q23.45,-0.3 19.25,0.05 C16.3,0.4 13.9,1.6 12.05,3.65 9.9,6 8.9,9 8.95,12.7 8.95,14.45 9.3,15.85 10,16.85 11.65,19.3 14.95,20.5 19.9,20.5 23.25,20.5 25.9,18.75 27.85,15.2 29.2,12.75 29.9,10.85 29.85,9.55 29.8,6.3 28.7,3.85 26.5,2.1z "/>
        </g>
      </g>
    </symbol>
    <symbol id="shape.__20459" viewBox="0.3 -2.95 17.6 19.1">
      <g id="Layer.__216">
        <g id="shape29" transform="matrix(1 0 0 1 0.3 -2.949)">
          <path id="path23" transform="matrix(1 0 0 1 -0.299 2.9)" fill="#FBEB6D" fill-opacity="1" d="M15.65,5.4 L12.85,0.4 C8.4,-3.85 4.25,-4.05 0.3,-0.3 L0.55,0.25 C1.75,4.1 3.35,7.4 5.3,10.15 7.25,12.9 9.6,14.7 12.4,15.6 15.2,16.5 16.8,16.25 17.25,14.9 17.7,13.5 17.9,12.3 17.9,11.25 17.9,10.2 17.15,8.25 15.65,5.4z "/>
        </g>
      </g>
    </symbol>
    <symbol id="shape.__20461" viewBox="0.3 0 24.65 29.05">
      <g id="Layer.__217">
        <g id="shape31" transform="matrix(1 0 0 1 0.3 0)">
          <path id="path24" transform="matrix(1 0 0 1 -0.299 0)" fill="#FBEB6D" fill-opacity="1" d="M4.4,18.65 Q1.85,22.75 1,24.8 L0.3,26.9 C4.75,29.8 8.85,29.75 12.65,26.75 13.6,26.15 14.45,25.3 15.25,24.15 L19.2,18.6 C23.05,13.1 24.95,9.05 24.95,6.5 24.95,1.6 23.7,-0.55 21.15,0.1 19.05,0.6 16.25,2.9 12.75,7 9.85,10.4 7.05,14.3 4.4,18.65z "/>
        </g>
      </g>
    </symbol>
    <linearGradient gradientUnits="userSpaceOnUse" color-interpolation="sRGB" x1="-0.02499999999999858" y1="26.55" x2="58.725" y2="26.55" id="linearGradient">
      <stop stop-color="#00CC00" stop-opacity="1" offset="0"/>
      <stop stop-color="#006600" stop-opacity="1" offset="1"/>
    </linearGradient>
  </defs>
  <g id="Layer.__201">
    <g id="sprite.__20463_1" transform="matrix(1.314666748046875 0 0 1.31475830078125 10.85 44.5)" overflow="visible">
      <g id="Layer.__246">
        <g id="Symbol.__201_2" transform="matrix(1.11639404296875 0 0 1.11651611328125 -8.049 -33.799)" overflow="visible">
          <g id="Layer.__247">
            <g id="sprite.__20465_4" transform="matrix(0.4074859619140625 0 0 0.4072723388671875 24.85 9.6)" overflow="visible">
              <g id="Layer.__248">
                <g id="sprite.__20473_7" transform="matrix(1 0 0 1 0.05 26.75)" overflow="visible">
                  <g id="Layer.__249">
                    <use xlink:href="#shape.__20459" id="shape.__20484" width="17.6" height="19.1" x="0.3" y="-2.95" transform="matrix(1 0 0 1 0 0)" overflow="visible"/>
                  </g>
                </g>
              </g>
              <g id="Layer.__250">
                <g id="sprite.__20475_7" overflow="visible">
                  <g id="Layer.__251">
                    <use xlink:href="#shape.__20461" id="shape.__20485" width="24.65" height="29.05" x="0.3" y="0" transform="matrix(1 0 0 1 0 0)" overflow="visible"/>
                  </g>
                </g>
              </g>
            </g>
            <use xlink:href="#sprite.__20467" id="sprite.__20478" width="28.549999999999997" height="38.15" x="10.5" y="0.35" transform="matrix(0.4527740478515625 0 0 0.4525299072265625 6 0)" overflow="visible"/>
            <g id="sprite.__20469_4" transform="matrix(0.4074859619140625 0 0 0.4072723388671875 0.9 8.8)" overflow="visible">
              <g id="Layer.__252">
                <use xlink:href="#shape.__20453" id="shape.__20486" width="61.75" height="42.1" x="-1.05" y="0.25" transform="matrix(1 0 0 1 0 0)" overflow="visible"/>
              </g>
              <g id="Masked.__20Layer.__203.__20-.__206">
                <use xlink:href="#shape.__20455" id="shape.__20487" width="49.95" height="63.65" x="3.55" y="-18.6" transform="matrix(1 0 0 1 -1.099 -2.949)" overflow="visible"/>
              </g>
            </g>
            <g id="sprite.__20471_4" transform="matrix(0.4527740478515625 0 0 0.4525299072265625 0 10.4)" overflow="visible">
              <g id="Layer.__253">
                <use xlink:href="#shape.__20457" id="shape.__20488" width="29.849999999999998" height="20.5" x="0" y="0" transform="matrix(1 0 0 1 0 0)" overflow="visible"/>
              </g>
              <g id="Layer.__254">
                <g id="shape36" transform="matrix(1 0 0 1 5.4 9.95)">
                  <path id="path28" transform="matrix(1 0 0 1 -5.399 -9.949)" fill="#210222" fill-opacity="1" d="M15.2,12.05 Q15.2,11.1 14.6,10.55 C14.15,10.15 13.65,9.95 13.1,9.95 12.55,9.95 12.1,10.15 11.65,10.55 11.25,10.9 11.05,11.4 11.05,11.95 11.05,12.5 11.25,13 11.65,13.45 12.1,13.9 12.55,14.1 13.1,14.1 13.65,14.1 14.15,13.9 14.6,13.45 15,13 15.2,12.55 15.2,12.05z M6.7,10.35 C6.35,10.35 6.05,10.5 5.8,10.75 5.55,11 5.4,11.3 5.4,11.65 5.4,12.1 5.55,12.4 5.8,12.65 6.05,12.95 6.35,13.1 6.7,13.1 7.1,13.1 7.45,12.95 7.7,12.65 8,12.4 8.15,12.1 8.15,11.75 8.15,11.35 8,11 7.7,10.75 7.45,10.5 7.1,10.35 6.7,10.35z"/>
                </g>
              </g>
            </g>
          </g>
        </g>
      </g>
    </g>
  </g>
</svg>