<?xml version="1.0" encoding="utf-8"?>
<!-- Generator: flash2svg, http://dissentgraphics.com/tools/flash2svg -->
<svg xmlns:xlink="http://www.w3.org/1999/xlink" id="fish-5" image-rendering="optimizeSpeed" baseProfile="basic" version="1.1" style="background-color:#ffffff" x="0px" y="0px" width="30px" height="30px" viewBox="0 0 30 30" enable-background="new 0 0 30 30" xmlns="http://www.w3.org/2000/svg">
  <defs>
    <symbol id="shape.__2058" viewBox="36.25 20.85 14.5 25.5">
      <g id="Layer.__205">
        <g id="shape" transform="matrix(1 0 0 1 36.25 20.85)">
          <path id="path" transform="matrix(1 0 0 1 -36.249 -20.849)" fill="#6600FF" fill-opacity="1" d="M49.05,45.95 L49.75,45.7 50.4,45.3 50.75,44.4 50.75,43.25 48.45,26.9 C48.1,22.45 47.2,20.45 45.85,20.95 44.75,21.3 43.4,23.3 41.8,26.85 40.95,28.65 40.1,30.65 39.35,32.85 L37.95,36.8 C36.8,40.15 36.2,42.1 36.25,42.6 L36.35,43.8 C36.5,44.25 36.8,44.6 37.25,44.9 38.4,45.75 41.1,46.2 45.3,46.35 L49.05,45.95z "/>
        </g>
      </g>
      <g id="Layer.__206">
        <g id="shape2" transform="matrix(1 0 0 1 40.95 22.95)">
          <path id="path1" transform="matrix(1 0 0 1 -40.949 -22.949)" fill="#FFFF00" fill-opacity="1" d="M42.55,29.15 Q44.15,25.7 45.4,25.5 C46.15,25.35 47.2,27.85 48.5,33 L47.6,26.8 C47.35,23.95 46.8,22.65 45.95,23 45.25,23.25 44.35,24.5 43.3,26.8 L40.925,33.35 42.55,29.15z "/>
        </g>
      </g>
    </symbol>
    <symbol id="shape.__2060" viewBox="0.05 0 7.45 11.7">
      <g id="Layer.__209">
        <g id="shape4" transform="matrix(1 0 0 1 0.05 0)">
          <path id="path2" transform="matrix(1 0 0 1 -0.049 0)" fill="#FFFF00" fill-opacity="1" d="M5,8.25 C4.4,7.35 3.75,6.8 3.05,6.6 5.5,5.7 6.95,3.5 7.5,0 Q6,0.75 4.05,2.05 0.05,4.65 0.05,7.2 C0.05,8.25 1.2,9.3 3.5,10.35 3.95,10.55 5.25,11 7.45,11.7 L5,8.25z "/>
        </g>
      </g>
    </symbol>
    <symbol id="shape.__2062" viewBox="0 0 16.4 10.7">
      <g id="Layer.__210">
        <g id="shape6" transform="matrix(1 0 0 1 0 0.45)">
          <path id="path3" transform="matrix(1 0 0 1 0 -0.449)" fill="#FEFEE4" fill-opacity="1" d="M8.9,5.2 Q8.7,3.2 7.25,1.85 C6.3,1 5.25,0.55 4.05,0.45 2.8,0.4 1.85,0.8 1.1,1.65 0.25,2.6 -0.1,4 0.05,5.85 L0.1,6.4 0.6,7.7 C1.35,8.85 2.65,9.4 4.5,9.25 5.8,9.15 6.9,8.6 7.75,7.65 8.55,6.8 8.95,5.95 8.9,5.2z "/>
        </g>
      </g>
      <g id="Layer.__211">
        <g id="shape8" transform="matrix(1 0 0 1 6 0)">
          <path id="path4" transform="matrix(1 0 0 1 -5.999 0)" fill="#FEFEE4" fill-opacity="1" d="M14.45,0.8 Q12.8,-0.25 10.75,0.1 C9.3,0.35 8.15,1.05 7.25,2.2 6.25,3.45 5.85,5 6.05,6.85 6.15,7.75 6.35,8.45 6.7,8.9 7.65,10.05 9.2,10.65 11.25,10.7 13.35,10.65 14.75,9.85 15.4,8.3 16.15,6.75 16.5,5.3 16.4,4 16.3,2.65 15.65,1.6 14.45,0.8z "/>
        </g>
      </g>
      <g id="Layer.__212">
        <g id="shape10" transform="matrix(1 0 0 1 4.7 3.75)">
          <path id="path5" transform="matrix(1 0 0 1 -4.699 -3.749)" fill="#210222" fill-opacity="1" d="M5.6,5.9 Q6,5.9 6.3,5.6 C6.5,5.45 6.6,5.2 6.6,4.95 6.6,4.7 6.5,4.45 6.3,4.25 6.1,4.1 5.85,4 5.6,4 5.35,4 5.15,4.1 4.95,4.25 4.8,4.45 4.7,4.65 4.7,4.9 4.7,5.2 4.8,5.45 4.95,5.6 5.15,5.8 5.35,5.9 5.6,5.9z M7.55,4.15 C7.3,4.4 7.15,4.75 7.15,5.15 7.15,5.55 7.3,5.9 7.55,6.2 7.85,6.5 8.2,6.65 8.55,6.65 8.95,6.65 9.3,6.5 9.6,6.2 9.9,5.9 10.05,5.55 10.05,5.2 10.05,4.75 9.9,4.4 9.6,4.15 9.3,3.9 8.95,3.75 8.55,3.75 8.2,3.75 7.85,3.9 7.55,4.15z"/>
        </g>
      </g>
    </symbol>
  </defs>
  <g id="Layer.__201">
    <g id="sprite.__2066_1" transform="matrix(1.1356048583984375 0 0 1.1364288330078125 -36.499 -23.649)" overflow="visible">
      <g id="Layer.__215">
        <use xlink:href="#shape.__2058" id="shape.__2066" width="14.5" height="25.5" x="36.25" y="20.85" transform="matrix(1 0 0 1 0 0)" overflow="visible"/>
      </g>
      <g id="Layer.__216">
        <g id="sprite.__2068_2" transform="matrix(1 0 0 1 50.25 35.55)" overflow="visible">
          <g id="Layer.__217">
            <use xlink:href="#shape.__2060" id="shape.__2067" width="7.45" height="11.7" x="0.05" y="0" transform="matrix(1 0 0 1 0 0)" overflow="visible"/>
          </g>
        </g>
      </g>
      <g id="Layer.__218">
        <g id="sprite.__2070_2" transform="matrix(1 0 0 1 31.95 31.95)" overflow="visible">
          <g id="Layer.__219">
            <use xlink:href="#shape.__2062" id="shape.__2068" width="16.4" height="10.7" x="0" y="0" transform="matrix(1 0 0 1 0 0)" overflow="visible"/>
          </g>
        </g>
      </g>
    </g>
  </g>
</svg>