<?xml version="1.0" encoding="utf-8"?>
<!-- Generator: flash2svg, http://dissentgraphics.com/tools/flash2svg -->
<svg xmlns:xlink="http://www.w3.org/1999/xlink" width="54px" height="50px" xmlns="http://www.w3.org/2000/svg">
  <defs>
    <symbol id="shape.__20453" viewBox="-2.55 -20.2 66.5 63">
      <g id="Layer.__211">
        <g id="shape16" transform="matrix(1 0 0 1 -2.549 -20.199)">
          <path id="path11" transform="matrix(1 0 0 1 2.5 20.15)" fill="url(#linearGradient)" fill-opacity="1" d="M53.25,-14.65 C55.2,-24.3 48.05,-21.35 31.7,-5.9 15.35,9.55 5.2,17.3 1.3,17.35 -2.65,17.4 -3.55,19.75 -1.45,24.4 0.65,29.05 7,33.5 17.55,37.75 28.15,42 36.45,43.55 42.45,42.5 48.45,41.4 53.85,38.95 58.65,35.15 L58.65,35.125 Q65.830078125,29.4041015625 63.3,28.8 C61.6,28.4 59,23.45 55.55,14 52.05,4.55 51.3,-5 53.25,-14.65z "/>
        </g>
      </g>
    </symbol>
    <symbol id="shape.__20455" viewBox="0 0 29.849999999999998 20.5">
      <g id="Layer.__212">
        <g id="shape18" transform="matrix(1 0 0 1 0 4.3)">
          <path id="path12" transform="matrix(1 0 0 1 0 -4.299)" fill="#FEFEE4" fill-opacity="1" d="M0,10.55 L0.05,11.3 C0.1,11.85 0.25,12.4 0.5,12.9 1.25,14.45 2.8,15.2 5.15,15.2 6.75,15.2 8.15,14.65 9.35,13.55 10.4,12.6 10.9,11.6 10.9,10.65 10.9,9 10.35,7.55 9.2,6.3 8.15,5.15 6.95,4.5 5.5,4.35 3.95,4.1 2.7,4.5 1.7,5.45 0.55,6.55 0,8.25 0,10.55z "/>
        </g>
      </g>
      <g id="Layer.__213">
        <g id="shape20" transform="matrix(1 0 0 1 8.95 0)">
          <path id="path13" transform="matrix(1 0 0 1 -8.949 0)" fill="#FEFEE4" fill-opacity="1" d="M26.5,2.1 Q23.45,-0.3 19.25,0.05 C16.3,0.4 13.9,1.6 12.05,3.65 9.9,6 8.9,9 8.95,12.7 8.95,14.45 9.3,15.85 10,16.85 11.65,19.3 14.95,20.5 19.9,20.5 23.25,20.5 25.9,18.75 27.85,15.2 29.2,12.75 29.9,10.85 29.85,9.55 29.8,6.3 28.7,3.85 26.5,2.1z "/>
        </g>
      </g>
    </symbol>
    <linearGradient gradientUnits="userSpaceOnUse" color-interpolation="sRGB" x1="-0.02499999999999858" y1="26.55" x2="58.725" y2="26.55" id="linearGradient">
      <stop stop-color="#666666" stop-opacity="1" offset="0"/>
      <stop stop-color="#333333" stop-opacity="1" offset="1"/>
      <stop stop-color="#FF0904" stop-opacity="1" offset="1"/>
      <stop stop-color="#FF0904" stop-opacity="1" offset="1"/>
    </linearGradient>
  </defs>
  <g id="Layer.__202">
    <g id="Symbol.__201_1" transform="matrix(1.27081298828125 0 0 1.2720947265625 0 0)" overflow="visible">
      <g id="Layer.__226">
        <g id="shape29" transform="matrix(1 0 0 1 0 0)">
          <path id="path21" fill="#666666" fill-opacity="1" d="M13.6,28.5 Q10.6,34.2 16.2,37.1 L17.15,37.65 C14.6,35.3 14.3,32.55 16.25,29.5 L13.6,28.5z "/>
        </g>
        <g id="sprite.__20463_2" transform="matrix(1.314666748046875 0 0 1.31475830078125 11.25 43.9)" overflow="visible">
          <g id="Layer.__227">
            <g id="shape30" transform="matrix(1 0 0 1 17.35 -18.449)">
              <path id="path22" transform="matrix(1 0 0 1 -17.349 18.4)" fill="#666666" fill-opacity="1" d="M17.35,-13.3 L17.4,-13.3 C17.8,-11.95 18.5,-10.8 19.5,-9.85 20.3,-9.25 21.5,-9.15 23.1,-9.5 21.65,-10.35 20.95,-11.65 21,-13.3 L20.95,-13.3 C21.5,-15 22.45,-16.7 23.85,-18.4 22.7,-18.55 21.5,-18.4 20.25,-17.9 19.1,-17.55 18.15,-16 17.35,-13.3z "/>
            </g>
          </g>
          <g id="Layer.__228">
            <g id="sprite.__20465_4" transform="matrix(0.4074859619140625 0 0 0.4072723388671875 -7.449 -25.099)" overflow="visible">
              <g id="Layer.__229">
                <use xlink:href="#shape.__20453" id="shape.__20463" width="66.5" height="63" x="-2.55" y="-20.2" transform="matrix(1 0 0 1 0 0)" overflow="visible"/>
              </g>
              <g id="Masked.__20Layer.__203.__20-.__206">
                <g id="shape31" transform="matrix(1 0 0 1 24.9 9.05)">
                  <path id="path23" transform="matrix(1 0 0 1 -24.899 -9.049)" fill="#000000" fill-opacity="1" d="M52,12.35 Q50.3798828125,7.048828125 49.4,10.2 C45.45,20.35 42,28.2 38.95,33.7 38.15,36 39.65,36 43.45,33.7 45.8,29.15 48.65,22 52,12.35z M56.45,23.6 C56,19.65 55.05,19.3 53.5,22.45 50.2,31.3 47.5,36.85 45.45,39.05 44.1,40.55 45.05,40.65 48.4,39.35 50.05,37.95 52.7,32.7 56.45,23.6zM39.7,16.85 C40.25,9.45 39.3,8.2 36.9,13.1 33.25,23.95 29.25,32.2 24.9,37.85 24.9,39.9 26.9,39.6 30.85,36.95 34.2,33.25 37.15,26.55 39.7,16.85z"/>
                </g>
              </g>
            </g>
          </g>
          <g id="Layer.__230">
            <g id="sprite.__20467_4" transform="matrix(0.4527740478515625 0 0 0.4525299072265625 -7.599 -25.749)" overflow="visible">
              <g id="Layer.__231">
                <use xlink:href="#shape.__20455" id="shape.__20464" width="29.849999999999998" height="20.5" x="0" y="0" transform="matrix(1 0 0 1 0 0)" overflow="visible"/>
              </g>
              <g id="Layer.__232">
                <g id="shape32" transform="matrix(1 0 0 1 5.4 9.95)">
                  <path id="path24" transform="matrix(1 0 0 1 -5.399 -9.949)" fill="#210222" fill-opacity="1" d="M15.2,12.05 Q15.2,11.1 14.6,10.55 C14.15,10.15 13.65,9.95 13.1,9.95 12.55,9.95 12.1,10.15 11.65,10.55 11.25,10.9 11.05,11.4 11.05,11.95 11.05,12.5 11.25,13 11.65,13.45 12.1,13.9 12.55,14.1 13.1,14.1 13.65,14.1 14.15,13.9 14.6,13.45 15,13 15.2,12.55 15.2,12.05z M6.7,10.35 C6.35,10.35 6.05,10.5 5.8,10.75 5.55,11 5.4,11.3 5.4,11.65 5.4,12.1 5.55,12.4 5.8,12.65 6.05,12.95 6.35,13.1 6.7,13.1 7.1,13.1 7.45,12.95 7.7,12.65 8,12.4 8.15,12.1 8.15,11.75 8.15,11.35 8,11 7.7,10.75 7.45,10.5 7.1,10.35 6.7,10.35z"/>
                </g>
              </g>
            </g>
          </g>
        </g>
      </g>
      <g id="Layer.__233">
        <g id="shape33" transform="matrix(1 0 0 1 19 30.25)">
          <path id="path25" transform="matrix(1 0 0 1 -18.999 -30.249)" fill="#666666" fill-opacity="1" d="M24.75,39 L25.95,39.3 C22.45,37.45 21.3,34.55 22.5,30.6 L19.3,30.25 C18.2,35.1 20,38 24.75,39z "/>
        </g>
      </g>
    </g>
  </g>
</svg>