<svg width="28" height="28" xmlns="http://www.w3.org/2000/svg">
 <g>
  <title>Gears</title>
  <path stroke="#A09CF0" fill-opacity="0" id="svg_1" d="m23.41468,14.37217l3.29838,-1.74378c-0.06483,-0.64699 -0.19048,-1.27389 -0.34694,-1.89016l-3.66395,-0.50663c-0.31683,-0.76401 -0.73596,-1.47308 -1.22785,-2.12279l1.39627,-3.43544c-0.45916,-0.44708 -0.95509,-0.8555 -1.47711,-1.23178l-3.11065,1.95293c-0.72985,-0.38363 -1.51585,-0.67435 -2.34066,-0.86218l-1.12418,-3.48291c-0.31877,-0.02401 -0.63767,-0.04943 -0.96312,-0.04943s-0.64297,0.02473 -0.96244,0.04943l-1.11359,3.45219c-0.84679,0.18177 -1.65013,0.47592 -2.39874,0.86417l-3.06248,-1.92419c-0.52134,0.37628 -1.01727,0.7847 -1.47652,1.23178l1.35823,3.3399c-0.52938,0.67904 -0.97253,1.42696 -1.30536,2.23372l-3.54773,0.49056c-0.15643,0.61626 -0.2821,1.24256 -0.34624,1.88954l3.18412,1.68495c0.03608,0.88759 0.18314,1.74644 0.44383,2.55656l-2.40216,2.6561c0.27937,0.57883 0.5902,1.14154 0.95047,1.66888l3.53638,-0.75989c0.58008,0.63091 1.2405,1.18372 1.96968,1.6408l-0.13439,3.61934c0.58089,0.26198 1.18443,0.48052 1.80668,0.6556l2.23698,-2.87601c0.39706,0.05081 0.79941,0.08553 1.20913,0.08553c0.44445,0 0.87897,-0.04071 1.30604,-0.09957l2.24906,2.89212c0.62293,-0.17519 1.22578,-0.39441 1.80658,-0.65641l-0.13693,-3.68338c0.69504,-0.44982 1.32467,-0.98726 1.88013,-1.59539l3.62856,0.77862c0.36027,-0.52733 0.67101,-1.08877 0.95047,-1.66896l-2.47965,-2.743c0.23785,-0.76599 0.37085,-1.57599 0.40971,-2.41081l-0.00001,-0.00001zm-5.48143,4.19001l-1.56401,1.01863l-0.96174,-1.47847c-0.49996,0.19326 -1.03933,0.30947 -1.60679,0.30947c-2.47963,0 -4.48947,-2.01039 -4.48947,-4.48945c0,-2.48035 2.00984,-4.49016 4.48947,-4.49016c2.47897,0 4.49016,2.00981 4.49016,4.49016c0,1.23855 -0.50191,2.35871 -1.3134,3.17214l0.95577,1.46768l0.00001,0z" stroke-width="2" fill="#A09CF0"/>
 </g>
</svg>