<?xml version="1.0" encoding="utf-8"?>
<!-- Generator: flash2svg, http://dissentgraphics.com/tools/flash2svg -->
<svg xmlns:xlink="http://www.w3.org/1999/xlink" width="126px" height="30px" xmlns="http://www.w3.org/2000/svg">
  <defs transform="matrix(1 0 0 1 0 0) "/>
  <g id="Layer.__201">
    <g id="sprite.__20155_1" overflow="visible">
      <g id="Layer.__343">
        <g id="sprite.__20165_3" overflow="visible">
          <g id="Layer.__344">
            <g id="shape.__20151_6" overflow="visible">
              <g id="Layer.__345">
                <g id="shape132">
                  <path id="path115" fill="#C43153" fill-opacity="1" d="M103.956,21.692 C103.475,20.168 102.595,17.378 99.934,18.218 97.662,18.936 97.626,20.083 97.7,20.316 Q98.009,21.298 100.604,22.95 103.055,24.505 103.417,24.391 C104.295,24.114 104.478,23.345 103.956,21.692z"/>
                </g>
              </g>
            </g>
          </g>
        </g>
      </g>
      <g id="Layer.__346">
        <g id="sprite.__20165_4" overflow="visible">
          <g id="Layer.__347">
            <g id="shape.__20151_7" overflow="visible">
              <g id="Layer.__348">
                <g id="shape133">
                  <path id="path116" fill="#C43153" fill-opacity="1" d="M64.957,27.579 C64.957,25.979 64.957,23.05 62.165,23.05 59.78,23.05 59.4,24.135 59.4,24.379 Q59.4,25.409 61.379,27.769 63.25,29.992 63.629,29.992 C64.551,29.992 64.957,29.314 64.957,27.579z"/>
                </g>
              </g>
            </g>
          </g>
        </g>
      </g>
      <g id="Layer.__349">
        <g id="sprite.__20168_2" overflow="visible">
          <g id="Layer.__350">
            <g id="shape.__20153_4" overflow="visible">
              <g id="Layer.__351">
                <g id="shape134">
                  <path id="path117" fill="#C43153" fill-opacity="1" d="M66.996,0.869 Q66.583,0.015 65.243,0.664 C59.076,3.648 57.431,10.01 57.467,10.083 57.703,10.571 57.762,10.632 57.978,10.829 L59.464,10.17 C66.239,6.891 67.196,1.283 66.996,0.869z"/>
                </g>
              </g>
            </g>
          </g>
        </g>
      </g>
    </g>
    <g id="sprite.__20157_1" overflow="visible">
      <g id="Layer.__352">
        <g id="sprite.__20170_2" overflow="visible">
          <g id="Layer.__353">
            <g id="shape.__20155_4" overflow="visible">
              <g id="Layer.__354">
                <g id="shape135">
                  <path id="path118" fill="#C43153" fill-opacity="1" d="M107.134,13.411 Q106.673,15.146 108.598,15.851 C109.872,16.312 112.881,15.173 117.679,12.407 122.424,9.668 124.89,7.092 125.026,4.733 125.162,2.374 122.261,3.025 116.378,6.658 113.423,8.475 110.333,10.726 107.134,13.411z"/>
                </g>
              </g>
              <g id="Layer.__355">
                <g id="shape136">
                  <path id="path119" fill="#E6B1BD" fill-opacity="1" d="M107.378,15.657 Q109.872,14.844 108.869,16.091 C117.354,11.861 121.014,9.176 119.848,8.01 118.682,6.844 115.917,7.956 111.498,11.4 107.08,14.817 105.724,16.227 107.378,15.657z"/>
                </g>
              </g>
            </g>
          </g>
        </g>
      </g>
      <g id="Layer.__356">
        <g id="sprite.__20172_2" overflow="visible">
          <g id="Layer.__357">
            <g id="shape.__20157_4" overflow="visible">
              <g id="Layer.__358">
                <g id="shape137">
                  <path id="path120" fill="#C43153" fill-opacity="1" d="M107.386,17.633 L112.78,22.243 C116.765,25.551 119.341,27.07 120.452,26.826 122.404,26.419 123.38,25.524 123.353,24.168 123.326,22.785 122.594,21.294 121.13,19.748 119.639,18.148 116.82,16.684 112.672,15.328 108.497,13.918 106.735,14.677 107.386,17.633z"/>
                </g>
              </g>
              <g id="Layer.__359">
                <g id="shape138">
                  <path id="path121" fill="#E6B1BD" fill-opacity="1" d="M113.779,17.222 Q108.791,14.483 108.791,17.005 C109.577,18.008 110.499,19.066 111.61,20.151 113.806,22.401 115.704,23.513 117.249,23.513 117.656,23.513 118.008,23.323 118.334,22.971 118.632,22.673 118.767,22.347 118.767,21.995 118.767,20.612 117.114,19.012 113.779,17.222z"/>
                </g>
              </g>
            </g>
          </g>
        </g>
      </g>
    </g>
    <g id="sprite.__20159_1" overflow="visible">
      <g id="Layer.__360">
        <g id="sprite.__20174_2" overflow="visible">
          <g id="Layer.__361">
            <g id="shape.__20159_4" overflow="visible">
              <g id="Layer.__362">
                <g id="shape139">
                  <path id="path122" fill="#FF3300" fill-opacity="1" d="M85.767,21.297 C102.033,19.643 106.668,19.372 107.373,19.101 Q108.729,18.64 109,16.999 L109,17.012 C64.567,22.219 57.763,22.734 43.313,23.358 L2.27,18.585 C10.538,21.568 17.885,27.453 34.178,27.453 40.006,27.453 48.329,26.504 58.901,24.443 L85.767,21.297z"/>
                  <path id="path123" fill="#FF9900" fill-opacity="1" d="M109,16.999 L109,15.507 L109,15.521 C82.378,16.09 58.359,20.809 48.654,20.809 L33.202,19.372 2.27,18.585 43.313,23.358 C57.763,22.734 64.567,22.219 109,17.012"/>
                  <path id="path124" fill="#FFCC00" fill-opacity="1" d="M109,15.521 C107.563,12.131 110.626,13.108 84.249,10.504 L58.603,8.85 C47.407,9.474 24.201,16.606 22.195,18.043 L33.202,19.372 48.654,20.809 C58.359,20.809 82.378,16.09 109,15.521z"/>
                </g>
              </g>
            </g>
          </g>
          <g id="Masked.__20Layer.__2010.__20-.__204">
            <g id="shape.__20161_4" overflow="visible">
              <g id="Layer.__363">
                <g id="shape140">
                  <path id="path125" fill="#B5678D" fill-opacity="1" d="M61.721,14.378 C62.019,12.832 62.507,11.395 62.507,11.124 62.507,9.008 61.992,8.981 56.028,8.981 54.32,8.981 54.157,9.686 54.157,10.419 54.157,12.615 58.251,18.771 59.742,18.771 Q60.23,18.771 60.582,18.201 61.124,17.252 61.721,14.378z"/>
                </g>
              </g>
              <g id="Layer.__364">
                <g id="shape141">
                  <path id="path126" fill="#B5678D" fill-opacity="1" d="M71.774,9.795 Q71.449,9.714 65.756,9.442 C65.539,10.283 65.431,10.717 65.431,11.259 65.431,15.056 66.813,19.042 68.06,19.042 69.334,19.042 69.66,16.412 74.024,9.985 L71.774,9.795z"/>
                </g>
              </g>
              <g id="Layer.__365">
                <g id="shape142">
                  <path id="path127" fill="#E6B1BD" fill-opacity="1" d="M56.922,12.371 Q56.922,14.378 57.736,15.598 58.251,16.33 59.2,16.873 C59.85,16.276 59.959,15.788 59.959,14.107 59.959,10.147 56.922,8.656 56.922,12.371z"/>
                </g>
              </g>
              <g id="Layer.__366">
                <g id="shape143">
                  <path id="path128" fill="#E6B1BD" fill-opacity="1" d="M68.25,16.33 Q69.551,15.029 70.419,12.371 C70.419,11.802 69.633,10.581 68.304,10.581 67.464,10.581 67.328,12.859 67.328,14.378 67.328,14.92 67.328,14.595 68.25,16.33z"/>
                </g>
              </g>
              <g id="Layer.__367">
                <g id="shape144">
                  <path id="path129" fill="#B5678D" fill-opacity="1" d="M81.317,14.002 C81.317,11.806 83.811,11.752 84.922,10.857 Q84.868,10.64 84.353,10.558 L76.139,10.016 C75.597,10.016 75.732,10.857 75.732,11.399 L75.732,10.504 L75.732,11.399 C75.732,17.012 79.961,18.206 80.178,18.206 81.534,18.206 81.723,17.419 81.723,16.904 81.723,16.362 81.317,14.545 81.317,14.002z"/>
                </g>
              </g>
              <g id="Layer.__368">
                <g id="shape145">
                  <path id="path130" fill="#E6B1BD" fill-opacity="1" d="M80.128,15.381 L80.535,13.754 C80.508,13.266 80.426,12.913 80.291,12.697 80.128,12.452 79.64,12.236 78.8,12.019 77.987,11.829 77.634,12.561 77.715,14.269 77.77,15.544 78.041,16.303 78.556,16.547 79.505,15.978 80.047,15.571 80.128,15.381z"/>
                </g>
              </g>
              <g id="Layer.__369">
                <g id="shape146">
                  <path id="path131" fill="#B5678D" fill-opacity="1" d="M97.478,12.091 L97.478,11.779 C95.472,11.508 93.195,11.236 90.647,10.992 88.098,10.748 86.743,10.667 86.553,10.775 86.363,10.857 86.255,11.426 86.255,12.43 86.255,13.433 86.526,14.545 87.068,15.765 87.529,16.877 88.071,17.609 88.668,17.962 Q89.156,17.365 89.508,15.765 89.915,14.111 90.376,13.406 91.879,11.199 97.478,12.091z"/>
                </g>
              </g>
              <g id="Layer.__370">
                <g id="shape147">
                  <path id="path132" fill="#E6B1BD" fill-opacity="1" d="M88.207,11.914 L87.448,12.023 C86.933,13.297 87.204,14.355 88.207,15.25 L89.481,12.863 C89.4,12.457 89.129,12.213 88.695,12.077 88.532,12.023 88.37,11.969 88.207,11.914z"/>
                </g>
              </g>
            </g>
          </g>
        </g>
      </g>
    </g>
    <g id="sprite.__20161_1" overflow="visible">
      <g id="Layer.__371">
        <g id="sprite.__20176_2" overflow="visible">
          <g id="Layer.__372">
            <g id="shape.__20163_10" overflow="visible">
              <g id="Layer.__373">
                <g id="shape148">
                  <path id="path133" fill="#FEFEE4" fill-opacity="1" d="M7.746,14.469 Q6.86,13.255 6.915,12.226 C7.028,10.087 6.852,8.801 6.412,8.398 6.049,8.08 5.52,8.324 4.85,9.184 4.299,9.861 3.734,10.781 3.184,11.947 2.666,13.005 2.565,13.896 2.932,14.648 3.272,15.4 3.749,16.131 4.363,16.842 4.977,17.553 5.696,17.809 6.52,17.635 7.343,17.462 7.897,17.247 8.209,16.992 8.466,16.761 8.616,16.497 8.633,16.172 8.649,15.875 8.354,15.289 7.746,14.469z"/>
                </g>
              </g>
            </g>
            <g id="shape.__20163_11" overflow="visible">
              <g id="Layer.__374">
                <g id="shape149">
                  <path id="path134" fill="#FEFEE4" fill-opacity="1" d="M14.192,15.247 Q13.528,14.337 13.569,13.566 C13.654,11.964 13.522,11.001 13.192,10.698 12.92,10.46 12.524,10.643 12.022,11.287 11.609,11.794 11.186,12.484 10.774,13.357 10.386,14.15 10.31,14.818 10.585,15.382 10.84,15.945 11.197,16.492 11.657,17.025 12.117,17.558 12.656,17.75 13.273,17.62 13.89,17.49 14.305,17.328 14.539,17.137 14.731,16.965 14.844,16.767 14.856,16.524 14.868,16.3 14.647,15.861 14.192,15.247z"/>
                </g>
              </g>
            </g>
            <g id="shape.__20163_12" overflow="visible">
              <g id="Layer.__375">
                <g id="shape150">
                  <path id="path135" fill="#FEFEE4" fill-opacity="1" d="M19.744,15.469 Q19.269,14.818 19.299,14.266 C19.359,13.119 19.265,12.43 19.029,12.213 18.834,12.043 18.551,12.174 18.191,12.635 17.896,12.998 17.593,13.491 17.298,14.116 17.02,14.684 16.966,15.162 17.163,15.565 17.345,15.968 17.601,16.36 17.93,16.742 18.259,17.123 18.645,17.26 19.087,17.167 19.528,17.074 19.826,16.959 19.993,16.822 20.131,16.698 20.211,16.557 20.22,16.383 20.228,16.223 20.07,15.909 19.744,15.469z"/>
                </g>
              </g>
            </g>
          </g>
          <g id="Layer.__376">
            <g id="sprite.__20183_4" overflow="visible">
              <g id="Layer.__377">
                <g id="shape.__20171_7" overflow="visible">
                  <g id="Layer.__378">
                    <g id="shape151">
                      <path id="path136" fill="#B5678D" fill-opacity="1" d="M38.014,19.763 Q40.903,19.02 37.941,17.56 C32.41,17.429 26.031,16.928 18.802,16.084 L4.187,14.766 C0.633,14.225 -0.36,15.557 1.208,18.735 5.15,19.65 11.177,20.132 19.317,20.184 L38.014,19.763z"/>
                    </g>
                  </g>
                  <g id="Layer.__379">
                    <g id="shape152">
                      <path id="path137" fill="#E6B1BD" fill-opacity="1" d="M13.905,17.268 Q13.964,16.673 13.199,16.253 C12.749,16.039 12.159,15.899 11.43,15.833 9.269,15.637 7.976,15.949 7.556,16.714 7.161,17.507 8.139,17.994 10.49,18.2 L11.952,18.277 C13.204,18.208 13.846,17.862 13.905,17.268z"/>
                    </g>
                  </g>
                  <g id="Layer.__380">
                    <g id="shape153">
                      <path id="path138" fill="#E6B1BD" fill-opacity="1" d="M4.385,16.543 Q4.353,17.655 5.463,17.714 C6.194,17.752 6.591,17.42 6.627,16.743 6.66,16.121 6.298,15.776 5.57,15.683 4.814,15.616 4.419,15.893 4.385,16.543z"/>
                    </g>
                  </g>
                </g>
              </g>
            </g>
          </g>
        </g>
      </g>
    </g>
    <g id="sprite.__20163_1" overflow="visible">
      <g id="Layer.__381">
        <g id="sprite.__20178_2" overflow="visible">
          <g id="Layer.__382">
            <g id="shape.__20167_4" overflow="visible">
              <g id="Layer.__383">
                <g id="shape154">
                  <path id="path139" fill="#FEFEE4" fill-opacity="1" d="M33.409,7.677 Q32.108,7.612 30.904,8.426 C30.058,9.044 29.505,9.76 29.213,10.638 28.92,11.68 29.083,12.754 29.701,13.827 L29.961,14.12 30.677,14.576 C31.49,14.934 32.433,14.771 33.539,14.153 34.743,13.469 35.426,12.493 35.654,11.224 35.849,10.248 35.751,9.434 35.394,8.816 34.971,8.1 34.32,7.71 33.409,7.677z"/>
                </g>
              </g>
              <g id="Layer.__384">
                <g id="shape155">
                  <path id="path140" fill="#FEFEE4" fill-opacity="1" d="M44.014,11.174 Q44.795,8.734 44.47,6.814 C44.242,5.479 44.047,4.731 43.917,4.503 42.908,2.811 41.672,1.933 40.143,1.9 38.777,1.867 37.41,2.421 36.044,3.56 34.775,4.666 33.897,6 33.409,7.562 32.824,9.287 32.889,10.751 33.637,11.988 34.255,13.094 35.003,13.81 35.882,14.168 37.41,14.819 39.004,14.884 40.696,14.363 42.388,13.843 43.494,12.769 44.014,11.174z"/>
                </g>
              </g>
            </g>
          </g>
        </g>
      </g>
      <g id="Layer.__385">
        <g id="sprite.__20180_3" overflow="visible">
          <g id="Layer.__386">
            <g id="shape.__20169_6" overflow="visible">
              <g id="Layer.__387">
                <g id="shape156">
                  <path id="path141" fill="#45022F" fill-opacity="1" d="M35.979,8.893 Q35.686,8.6 35.328,8.6 C35.101,8.6 34.873,8.698 34.71,8.893 34.548,9.056 34.45,9.283 34.45,9.511 34.45,9.739 34.548,9.967 34.71,10.129 34.873,10.292 35.101,10.39 35.328,10.39 35.556,10.39 35.784,10.292 35.979,10.129 36.142,9.967 36.239,9.739 36.239,9.511 36.239,9.283 36.142,9.056 35.979,8.893z"/>
                </g>
              </g>
            </g>
          </g>
        </g>
      </g>
      <g id="Layer.__388">
        <g id="sprite.__20180_4" overflow="visible">
          <g id="Layer.__389">
            <g id="shape.__20169_7" overflow="visible">
              <g id="Layer.__390">
                <g id="shape157">
                  <path id="path142" fill="#45022F" fill-opacity="1" d="M32.623,9.284 Q32.389,9.05 32.103,9.05 C31.92,9.05 31.738,9.128 31.608,9.284 31.478,9.414 31.4,9.597 31.4,9.779 31.4,9.961 31.478,10.143 31.608,10.274 31.738,10.404 31.92,10.482 32.103,10.482 32.285,10.482 32.467,10.404 32.623,10.274 32.753,10.143 32.831,9.961 32.831,9.779 32.831,9.597 32.753,9.414 32.623,9.284z"/>
                </g>
              </g>
            </g>
          </g>
        </g>
      </g>
    </g>
  </g>
</svg>