<?xml version="1.0" encoding="utf-8"?>
<!-- Generator: flash2svg, http://dissentgraphics.com/tools/flash2svg -->
<svg xmlns:xlink="http://www.w3.org/1999/xlink" width="60px" height="40px" xmlns="http://www.w3.org/2000/svg">
  <defs transform="matrix(1 0 0 1 0 0) "/>
  <g id="Layer.__201">
    <g id="shape.__2069_1" overflow="visible">
      <g id="Layer.__224">
        <g id="shape43">
          <path id="path30" fill="#66FFFF" fill-opacity="1" d="M37.688,20.107 Q37.869,20.695 37.959,21.312 L37.959,20.107 37.688,20.107z"/>
          <path id="path31" fill="#00FCBD" fill-opacity="1" d="M30.568,12.555 L29.543,10.205 27.823,7.883 18.169,10.293 C16.571,11.439 15.092,12.614 13.735,13.819 10.628,16.669 9.089,18.403 9.119,18.961 9.149,19.52 7.913,19.843 5.409,19.931 2.905,20.019 1.427,20.284 1.034,20.724 0.642,21.165 0.642,21.723 1.034,22.399 1.427,23.075 1.668,23.839 1.789,24.662 2.06,26.219 2.663,27.747 3.538,29.246 5.288,30.304 7.098,31.215 8.938,31.949 12.196,33.272 15.364,33.947 18.411,33.947 22.483,33.947 25.923,32.919 28.668,30.891 31.775,28.629 33.314,25.485 33.314,21.459 33.314,19.843 32.408,16.875 30.568,12.555z"/>
          <path id="path32" fill="#00D9A3" fill-opacity="1" d="M29.543,10.205 L30.568,12.555 C32.408,16.875 33.314,19.843 33.314,21.459 33.314,25.485 31.775,28.629 28.668,30.891 25.923,32.919 22.483,33.947 18.411,33.947 15.364,33.947 12.196,33.272 8.938,31.949 7.098,31.215 5.288,30.304 3.538,29.246 L5.439,31.861 C9.873,36.827 17.295,39.325 27.763,39.325 30.448,39.295 32.831,38.531 34.912,37.062 35.606,33.771 35.727,30.039 35.274,25.867 L35.063,24.28 C34.309,19.226 32.469,14.524 29.543,10.205z"/>
        </g>
      </g>
    </g>
    <g id="sprite.__2073_1" overflow="visible">
      <g id="Layer.__225">
        <g id="shape.__2073_2" overflow="visible">
          <g id="Layer.__226">
            <g id="shape44">
              <path id="path33" fill="#910463" fill-opacity="1" d="M52.39,9.699 Q50.376,10.19 47.405,15.34 45.995,17.94 44.887,20.441 C47.002,27.995 56.369,28.633 56.923,28.486 58.584,28.093 58.232,27.014 58.232,27.014 L58.182,27.603 L58.232,27.014 C58.03,26.328 56.419,24.954 53.397,23.041 59.793,19.068 61.002,17.253 56.923,17.596 52.793,17.94 51.433,17.204 52.894,15.389 54.405,13.525 54.908,12.103 54.505,11.023 54.052,9.895 53.347,9.503 52.39,9.699z"/>
            </g>
          </g>
        </g>
      </g>
    </g>
    <g id="shape.__2071_1" overflow="visible">
      <g id="Layer.__227">
        <g id="shape45">
          <path id="path34" fill="#FBE767" fill-opacity="1" d="M35.365,3.623 C36.541,2.065 37.356,0.978 37.386,0.478 35.124,-0.815 26.285,5.062 26.285,7.589 Q26.285,8.03 27.431,9.353 28.849,10.998 30.357,10.998 C31.865,10.998 29.874,10.881 35.365,3.623z"/>
        </g>
      </g>
      <g id="Layer.__228">
        <g id="shape46">
          <path id="path35" fill="#FBE767" fill-opacity="1" d="M42.816,40.245 L43.57,40.215 C43.57,40.156 43.691,40.509 43.691,39.921 43.691,37.453 42.997,39.099 39.558,32.663 33.283,38.158 36.059,35.837 34.852,37.13 36.602,39.01 42.153,40.245 42.816,40.245z"/>
        </g>
      </g>
      <g id="Layer.__229">
        <g id="shape47">
          <path id="path36" fill="#FBE767" fill-opacity="1" d="M45.923,24.633 Q45.23,25.044 42.786,27.512 40.403,29.892 39.498,30.392 C40.976,30.157 45.773,31.332 48.065,33.595 46.014,25.867 46.617,26.807 45.923,24.633z"/>
        </g>
      </g>
      <g id="Layer.__230">
        <g id="shape48">
          <path id="path37" fill="#00FCBD" fill-opacity="1" d="M47.764,21.468 Q47.764,21.056 44.445,17.853 C42.062,15.591 39.588,13.446 37.024,11.418 29.874,5.688 26.285,4.219 26.285,7.011 31.262,19.411 34.158,29.402 34.973,37.012 38.14,34.456 40.433,32.223 41.851,30.254 45.803,24.876 47.764,21.967 47.764,21.468z"/>
        </g>
      </g>
    </g>
    <g id="sprite.__2075_1" overflow="visible">
      <g id="Layer.__231">
        <g id="shape.__2075_2" overflow="visible">
          <g id="Layer.__232">
            <g id="shape49">
              <path id="path38" fill="#00D9A3" fill-opacity="1" d="M29.611,19.062 Q33.321,16.313 30.23,11.259 C28.16,7.882 25.768,5.683 23.053,4.688 20.338,3.693 19.962,3.902 21.897,5.29 23.806,6.678 24.773,7.725 24.773,8.458 25.338,9.427 25.445,10.579 25.042,11.94 24.209,14.715 21.36,16.103 16.494,16.103 15.769,16.103 14.989,15.789 14.129,15.161 13.269,14.532 12.489,14.218 11.764,14.218 L9.183,14.637 8.753,14.637 C10.769,17.491 14.102,19.402 18.806,20.371 23.51,21.313 27.112,20.868 29.611,19.062z"/>
              <path id="path39" fill="#00D9A3" fill-opacity="1" d="M7.329,7.987 C6.469,9.217 6.603,10.893 7.732,12.987 7.463,11.862 7.329,10.212 7.329,7.987"/>
            </g>
          </g>
          <g id="Layer.__233">
            <g id="shape50">
              <path id="path40" fill="#00D9A3" fill-opacity="1" d="M14.448,17.805 Q15.98,16.601 15.98,14.925 C15.98,13.799 15.469,12.83 14.448,12.019 13.426,11.207 12.19,10.814 10.712,10.814 9.233,10.814 7.997,11.207 6.975,12.019 5.954,12.83 5.443,13.773 5.443,14.899 5.443,16.025 5.954,16.993 6.975,17.805 7.997,18.617 9.233,19.009 10.712,19.009 12.19,19.009 13.426,18.617 14.448,17.805z"/>
            </g>
          </g>
          <g id="Layer.__234">
            <g id="shape51">
              <path id="path41" fill="#FEFEE4" fill-opacity="1" d="M3.727,12.987 Q3.834,13.93 4.238,14.742 C5.125,16.391 6.845,17.203 9.398,17.203 11.172,17.203 12.705,16.627 14.022,15.449 15.204,14.375 15.796,13.328 15.796,12.307 15.796,10.526 15.177,8.982 13.914,7.646 12.731,6.416 11.361,5.709 9.775,5.526 8.081,5.29 6.684,5.709 5.582,6.73 4.318,7.908 3.7,9.741 3.7,12.228 L3.727,12.987z"/>
            </g>
          </g>
          <g id="Layer.__235">
            <g id="shape52">
              <path id="path42" fill="#FEFEE4" fill-opacity="1" d="M26.517,16.26 Q28.264,13.197 27.296,10.212 C26.597,8.196 25.495,6.599 23.963,5.421 22.539,4.347 20.872,3.902 18.937,4.086 16.948,4.295 15.281,5.107 13.964,6.494 12.486,8.065 11.787,10.107 11.841,12.595 11.867,13.799 12.083,14.742 12.539,15.396 13.695,17.046 16.034,18.093 19.555,18.564 23.076,19.035 25.388,18.276 26.517,16.26z"/>
            </g>
          </g>
          <g id="Layer.__236">
            <g id="shape53">
              <path id="path43" fill="#210222" fill-opacity="1" d="M10.712,11.833 Q10.712,11.44 10.443,11.179 C10.255,10.995 10.04,10.891 9.771,10.891 9.502,10.891 9.287,10.995 9.099,11.179 8.911,11.362 8.83,11.571 8.83,11.833 8.83,12.095 8.911,12.331 9.099,12.514 9.287,12.697 9.502,12.776 9.771,12.776 10.04,12.776 10.255,12.697 10.443,12.514 10.631,12.331 10.712,12.095 10.712,11.833z"/>
            </g>
          </g>
          <g id="Layer.__237">
            <g id="shape54">
              <path id="path44" fill="#210222" fill-opacity="1" d="M16.114,11.938 Q16.114,11.414 15.738,11.021 C15.469,10.76 15.147,10.629 14.77,10.629 14.394,10.629 14.072,10.76 13.803,11.021 13.534,11.283 13.4,11.597 13.4,11.938 13.4,12.278 13.534,12.592 13.803,12.854 14.072,13.116 14.394,13.247 14.77,13.247 15.147,13.247 15.469,13.116 15.738,12.854 15.98,12.592 16.114,12.278 16.114,11.938z"/>
            </g>
          </g>
        </g>
      </g>
    </g>
  </g>
  <g id="Layer.__202">
    <g id="shape">
      <path id="path" fill="#B5678D" fill-opacity="1" d="M1.45,19.6 Q-0.7,19.3 0.35,22.15 C1.95,22.6 4.4,22.7 7.65,22.45 L15.2,21.55 C15.95,21.2 15.95,20.75 15.1,20.2 12.9,20.3 10.35,20.2 7.4,19.95 L1.45,19.6z M2.45,20.75 C2.45,21.2 2.3,21.4 2,21.4 1.7,21.4 1.55,21.15 1.55,20.7 1.55,20.3 1.7,20.1 2,20.15 2.3,20.2 2.45,20.4 2.45,20.75z M4.1,21.55 C3.15,21.5 2.7,21.2 2.85,20.7 3,20.25 3.55,20 4.4,20.05 4.7,20.05 4.95,20.1 5.15,20.25 5.35,20.4 5.45,20.6 5.45,20.85 5.4,21.2 5.15,21.45 4.65,21.55 L4.1,21.55z"/>
      <path id="path1" fill="#E6B1BD" fill-opacity="1" d="M2.45,20.75 C2.45,20.4 2.3,20.2 2,20.15 1.7,20.1 1.55,20.3 1.55,20.7 1.55,21.15 1.7,21.4 2,21.4 2.3,21.4 2.45,21.2 2.45,20.75z"/>
      <path id="path4" fill="#E6B1BD" fill-opacity="1" d="M4.1,21.55 L4.65,21.55 C5.15,21.45 5.4,21.2 5.45,20.85 5.45,20.6 5.35,20.4 5.15,20.25 4.95,20.1 4.7,20.05 4.4,20.05 3.55,20 3,20.25 2.85,20.7 2.7,21.2 3.15,21.5 4.1,21.55z"/>
    </g>
  </g>
</svg>