<svg width="26" height="26" xmlns="http://www.w3.org/2000/svg">
 <g>
  <title>Layer 1</title>
  <path stroke="#FFFFFF" id="svg_1" d="m2,8.78959l0,8.21008l4.67382,0l6.99656,5.74575l0.00416,-19.70157l-6.99755,5.74574l-4.67699,0zm14.35722,-0.94441c-0.40854,-0.40419 -1.06479,-0.40419 -1.47133,0.00237c-0.40536,0.40657 -0.40536,1.0646 0.00214,1.47235l0,-0.00238c0.89722,0.8984 1.45055,2.13077 1.45055,3.49993c0,1.36842 -0.55214,2.59642 -1.44852,3.49482c-0.40953,0.40458 -0.40953,1.0626 -0.00203,1.47112c0.20271,0.2027 0.46886,0.30465 0.73519,0.30465c0.26714,0 0.53329,-0.10195 0.73616,-0.30465c1.27044,-1.26843 2.05854,-3.03072 2.0576,-4.96594c0.00094,-1.93917 -0.79012,-3.70341 -2.05976,-4.97227zm2.38614,-2.38502c-0.40849,-0.40657 -1.06454,-0.40657 -1.46911,0c-0.40756,0.40656 -0.40756,1.06577 0,1.47036c1.50764,1.50844 2.43733,3.58405 2.43733,5.88614c0,2.29973 -0.92969,4.37418 -2.43516,5.88376c-0.40756,0.4058 -0.40756,1.06382 0,1.47039c0.20268,0.2027 0.4688,0.30464 0.73617,0.30464c0.26616,0 0.5323,-0.10194 0.73497,-0.30464c1.8801,-1.88089 3.04561,-4.48678 3.04345,-7.35415c0.00115,-2.87011 -1.16455,-5.4776 -3.04765,-7.3565zm2.26584,-2.2656c-0.40871,-0.40656 -1.06576,-0.40459 -1.47035,0.00198c-0.40655,0.40459 -0.40655,1.0638 0.00219,1.46917l-0.00219,0c2.08892,2.08909 3.37722,4.96275 3.37722,8.15095c0,3.18464 -1.2883,6.05951 -3.37503,8.14941c-0.40658,0.40576 -0.40658,1.06376 0.002,1.47152c0.20171,0.20151 0.46805,0.30265 0.73412,0.30265s0.53335,-0.10194 0.73619,-0.30465c2.457,-2.46034 3.98333,-5.86747 3.98131,-9.61893c0.00202,-3.75459 -1.52431,-7.16294 -3.98546,-9.6221z" stroke-linecap="null" stroke-linejoin="null" stroke-dasharray="null" stroke-width="0" fill="#5C57C7"/>
 </g>
</svg>